<svg xmlns="http://www.w3.org/2000/svg" viewBox="0 0 32 32" role="img" aria-label="Level 6 of 8">
  <g fill="currentColor">
    <path d="M16 16 L32 16 A16 16 0 0 0 27.314 4.686 Z"/>
    <path d="M16 16 L27.314 4.686 A16 16 0 0 0 16 0 Z"/>
    <path d="M16 16 L16 0 A16 16 0 0 0 4.686 4.686 Z"/>
    <path d="M16 16 L4.686 4.686 A16 16 0 0 0 0 16 Z"/>
    <path d="M16 16 L0 16 A16 16 0 0 0 4.686 27.314 Z"/>
    <path d="M16 16 L4.686 27.314 A16 16 0 0 0 16 32 Z"/>
    <path d="M16 0 A16 16 0 1 1 15.999 0 Z M16 4 A12 12 0 1 0 16.001 4 Z"
          fill-rule="evenodd"/>
  </g>
</svg>
