<svg xmlns="http://www.w3.org/2000/svg" width="512" height="512" viewBox="0 0 24 24">
  <defs>
    <linearGradient id="grelierGaugeGrad" x1="1" y1="0" x2="0" y2="0">
      <stop offset="0%" stop-color="currentColor" stop-opacity="0.7" />
      <stop offset="100%" stop-color="currentColor" stop-opacity="1" />
    </linearGradient>
  </defs>
  <path fill="url(#grelierGaugeGrad)" d="M12.075 22q-2.1 0-3.937-.8t-3.2-2.163q-1.363-1.362-2.163-3.2t-.8-3.937q0-3.65 2.325-6.438T10.225 2q-.45 2.475.275 4.838t2.5 4.137q1.775 1.775 4.138 2.5t4.837.275q-.65 3.6-3.45 5.925T12.075 22ZM18 10l-1.25-2.75L14 6l2.75-1.25L18 2l1.25 2.75L22 6l-2.75 1.25L18 10Z"/>
</svg>
